# xmcd CD database file
#
# Track frame offsets:
#	150
#	20800
#	38052
#	57844
#	67320
#	75228
#	88628
#	106381
#	121365
#	134724
#	152758
#	167558
#	182261
#
# Disc length: 2568 seconds
#
# Revision: 1
# Processed by: cddbd v1.5.1PL0 Copyright (c) Steve Scherf et al.
# Submitted via: CDex 1.51
#
DISCID=a80a060d
DTITLE=電気グルーヴ×スチャダラパー - 電気グルーヴとかスチャダラパー
DYEAR=2005
DGENRE=Techno
TTITLE0=聖☆おじさん
TTITLE1=ナンバーズ
TTITLE2=Twilight
TTITLE3=ANI VS 瀧
TTITLE4=瀧 VS ANI
TTITLE5=英数/かな
TTITLE6=機材屋ロックンロール
TTITLE7=目ゲキ者 !!!!
TTITLE8=ミッドナイトコネクション
TTITLE9=Love Love Session
TTITLE10=B.A.P.
TTITLE11=羊たちのエレジー
TTITLE12=マシーン少女タムタム〜おわりの唄
EXTD=YEAR: 2005
EXTT0=
EXTT1=
EXTT2=
EXTT3=
EXTT4=
EXTT5=
EXTT6=
EXTT7=
EXTT8=
EXTT9=
EXTT10=
EXTT11=
EXTT12=
PLAYORDER=
